<mxfile host="65bd71144e">
    <diagram id="B_a5sP2wQfdarPb4FW3X" name="Page-1">
        <mxGraphModel dx="872" dy="645" grid="1" gridSize="10" guides="1" tooltips="1" connect="1" arrows="1" fold="1" page="1" pageScale="1" pageWidth="850" pageHeight="1100" math="0" shadow="0">
            <root>
                <mxCell id="0"/>
                <mxCell id="1" parent="0"/>
                <mxCell id="2" value="&lt;b&gt;&lt;font style=&quot;font-size: 14px;&quot;&gt;Registration flow&lt;/font&gt;&lt;/b&gt;" style="text;html=1;align=center;verticalAlign=middle;resizable=0;points=[];autosize=1;strokeColor=none;fillColor=none;" vertex="1" parent="1">
                    <mxGeometry x="405" y="10" width="140" height="30" as="geometry"/>
                </mxCell>
                <mxCell id="3" value="user" style="rounded=1;whiteSpace=wrap;html=1;fontSize=14;" vertex="1" parent="1">
                    <mxGeometry x="80" y="120" width="120" height="60" as="geometry"/>
                </mxCell>
                <mxCell id="4" value="&lt;b style=&quot;&quot;&gt;&lt;span style=&quot;color: rgb(255, 255, 255); font-family: &amp;quot;Segoe WPC&amp;quot;, &amp;quot;Segoe UI&amp;quot;, sans-serif; font-size: 13px; text-align: start; background-color: rgb(38, 50, 56);&quot;&gt;/auth/register&lt;br&gt;or&lt;br&gt;&lt;/span&gt;&lt;span style=&quot;color: rgb(255, 255, 255); font-family: &amp;quot;Segoe WPC&amp;quot;, &amp;quot;Segoe UI&amp;quot;, sans-serif; font-size: 13px; text-align: start; background-color: rgb(38, 50, 56);&quot;&gt;/auth/login&lt;/span&gt;&lt;/b&gt;&lt;span style=&quot;color: rgb(255, 255, 255); font-family: &amp;quot;Segoe WPC&amp;quot;, &amp;quot;Segoe UI&amp;quot;, sans-serif; font-size: 13px; text-align: start; background-color: rgb(38, 50, 56);&quot;&gt;&lt;br&gt;&lt;/span&gt;" style="rounded=1;whiteSpace=wrap;html=1;fontSize=14;" vertex="1" parent="1">
                    <mxGeometry x="280" y="120" width="120" height="60" as="geometry"/>
                </mxCell>
                <mxCell id="5" value="auth service(Rest api's)" style="text;html=1;align=center;verticalAlign=middle;resizable=0;points=[];autosize=1;strokeColor=none;fillColor=none;fontSize=14;" vertex="1" parent="1">
                    <mxGeometry x="260" y="90" width="170" height="30" as="geometry"/>
                </mxCell>
                <mxCell id="6" value="register" style="rounded=1;whiteSpace=wrap;html=1;fontSize=14;" vertex="1" parent="1">
                    <mxGeometry x="470" y="120" width="120" height="60" as="geometry"/>
                </mxCell>
                <mxCell id="7" value="user Model" style="rounded=1;whiteSpace=wrap;html=1;fontSize=14;" vertex="1" parent="1">
                    <mxGeometry x="680" y="120" width="120" height="60" as="geometry"/>
                </mxCell>
                <mxCell id="8" value="" style="endArrow=classic;html=1;fontSize=14;" edge="1" parent="1">
                    <mxGeometry relative="1" as="geometry">
                        <mxPoint x="200" y="149.41" as="sourcePoint"/>
                        <mxPoint x="300" y="149.41" as="targetPoint"/>
                        <Array as="points"/>
                    </mxGeometry>
                </mxCell>
                <mxCell id="9" value="" style="shape=message;html=1;outlineConnect=0;fontSize=14;" vertex="1" parent="8">
                    <mxGeometry width="20" height="14" relative="1" as="geometry">
                        <mxPoint x="-10" y="-7" as="offset"/>
                    </mxGeometry>
                </mxCell>
                <mxCell id="10" value="users" style="shape=cylinder3;whiteSpace=wrap;html=1;boundedLbl=1;backgroundOutline=1;size=15;fontSize=14;" vertex="1" parent="1">
                    <mxGeometry x="720" y="230" width="60" height="80" as="geometry"/>
                </mxCell>
                <mxCell id="11" value="" style="curved=1;endArrow=classic;html=1;fontSize=14;exitX=1;exitY=0.5;exitDx=0;exitDy=0;" edge="1" parent="1" source="4">
                    <mxGeometry width="50" height="50" relative="1" as="geometry">
                        <mxPoint x="425" y="200" as="sourcePoint"/>
                        <mxPoint x="475" y="150" as="targetPoint"/>
                        <Array as="points">
                            <mxPoint x="410" y="150"/>
                            <mxPoint x="440" y="150"/>
                            <mxPoint x="425" y="150"/>
                        </Array>
                    </mxGeometry>
                </mxCell>
                <mxCell id="12" value="" style="endArrow=classic;html=1;fontSize=14;entryX=0;entryY=0.5;entryDx=0;entryDy=0;exitX=1;exitY=0.5;exitDx=0;exitDy=0;" edge="1" parent="1" source="6" target="7">
                    <mxGeometry width="50" height="50" relative="1" as="geometry">
                        <mxPoint x="620" y="180" as="sourcePoint"/>
                        <mxPoint x="670" y="130" as="targetPoint"/>
                        <Array as="points"/>
                    </mxGeometry>
                </mxCell>
                <mxCell id="13" value="DB" style="text;html=1;align=center;verticalAlign=middle;resizable=0;points=[];autosize=1;strokeColor=none;fillColor=none;fontSize=14;" vertex="1" parent="1">
                    <mxGeometry x="725" y="200" width="40" height="30" as="geometry"/>
                </mxCell>
            </root>
        </mxGraphModel>
    </diagram>
</mxfile>